<svg width="160" height="46" viewBox="0 0 160 46" fill="none" xmlns="http://www.w3.org/2000/svg">
<g clip-path="url(#clip0_92568_59)">
<path d="M36.7229 33.8638C36.1088 34.9445 35.3842 35.9614 34.5589 36.8972L34.5811 36.9193L33.8147 37.6881C30.403 41.1194 25.8615 43.0107 21.0252 43.0107C16.2086 43.0107 11.6793 41.1342 8.27253 37.7274C4.86576 34.3206 2.98921 29.7914 2.98921 24.9747C2.98921 24.6186 2.99904 24.2575 3.02114 23.8989C3.0236 23.8498 3.02606 23.8007 3.03097 23.7491V23.7343C3.03343 23.7024 3.03588 23.668 3.03834 23.6361V23.6189C3.04325 23.5452 3.05062 23.4691 3.05799 23.3954C3.0629 23.334 3.06781 23.2701 3.07518 23.2038C3.08501 23.108 3.09483 23.0098 3.10466 22.914C3.11202 22.8575 3.11694 22.7936 3.12676 22.7322C3.13659 22.6536 3.14641 22.5627 3.15869 22.4743C3.16606 22.4252 3.17343 22.3761 3.1808 22.3269C3.19062 22.2459 3.20536 22.155 3.2201 22.0666C3.22747 22.0199 3.23729 21.9659 3.24466 21.9143C3.25203 21.8701 3.2594 21.8259 3.26922 21.7816C3.27905 21.7252 3.29133 21.6588 3.30361 21.595C3.31343 21.5385 3.32572 21.4771 3.338 21.4157C3.35273 21.3444 3.36501 21.2757 3.38221 21.202C3.48537 20.7107 3.61309 20.217 3.75801 19.7356L3.76292 19.7233C3.78012 19.6595 3.79976 19.5956 3.82187 19.5342C3.83906 19.4802 3.85626 19.4261 3.87345 19.3696C3.97661 19.0552 4.0896 18.7359 4.20995 18.4289C4.22715 18.3872 4.24434 18.3405 4.26153 18.2963C4.28118 18.2496 4.29838 18.2005 4.32048 18.1489C4.34504 18.09 4.37206 18.0236 4.39908 17.9573C4.41873 17.9082 4.44329 17.8517 4.46786 17.7977L4.47768 17.7731C4.51207 17.6994 4.544 17.6233 4.57838 17.5496C4.60295 17.4931 4.62751 17.4391 4.65453 17.385C5.10893 16.4025 5.66158 15.4544 6.29282 14.5653L6.39598 14.4253C6.46721 14.327 6.53844 14.2288 6.61213 14.1354C6.64652 14.0912 6.68336 14.0421 6.7202 13.9954C6.7988 13.8923 6.87986 13.7916 6.95846 13.6933C7.00513 13.6368 7.05179 13.5754 7.10092 13.5189C7.14513 13.4649 7.19425 13.4084 7.24338 13.3495C7.29005 13.293 7.34163 13.234 7.39075 13.1775C7.44724 13.1137 7.50374 13.0473 7.56023 12.9835L5.44297 10.8638C1.93059 14.7274 0 19.7209 0 24.9723C0 30.5896 2.18603 35.868 6.15773 39.8397C10.1294 43.8114 15.4078 45.9975 21.0252 45.9975C26.6598 45.9975 31.9529 43.7967 35.9271 39.8029C37.0618 38.6632 38.0615 37.4007 38.904 36.0424L36.7229 33.8638Z" fill="#1D2A38"/>
<path d="M9.81267 36.1872C12.8068 39.1814 16.7908 40.8319 21.0253 40.8319C21.1579 40.8319 21.2906 40.8295 21.4232 40.827C21.4895 40.827 21.5534 40.8246 21.6197 40.8221H21.6295C21.7278 40.8172 21.8236 40.8123 21.9218 40.8074C22.0004 40.8025 22.0765 40.7975 22.1551 40.7926C22.1944 40.7902 22.2288 40.7877 22.2608 40.7853L22.3148 40.7804C22.386 40.7754 22.4573 40.7681 22.5309 40.7607C22.5948 40.7558 22.6538 40.7509 22.7152 40.7435C22.7594 40.7386 22.7987 40.7337 22.8355 40.7312L22.9166 40.7214C22.9681 40.714 23.0197 40.7091 23.0738 40.7018C23.2703 40.6772 23.4618 40.6502 23.651 40.6182C23.705 40.6084 23.7566 40.5986 23.8082 40.5912L23.8254 40.5888C23.8671 40.5814 23.9089 40.574 23.9482 40.5667L23.9678 40.5618C24.0219 40.5519 24.0759 40.5421 24.1299 40.5298C24.2724 40.5028 24.4124 40.4733 24.5499 40.4414C24.6433 40.4217 24.7366 40.3972 24.83 40.3751L24.8422 40.3726C24.8668 40.3677 24.8889 40.3628 24.9135 40.3554C24.9822 40.3382 25.0436 40.321 25.1075 40.3063C25.1615 40.2916 25.2131 40.2793 25.2622 40.2645C25.3065 40.2523 25.3458 40.2424 25.3826 40.2302C25.4194 40.2203 25.4489 40.213 25.4759 40.2031L25.498 40.1958C25.5373 40.1859 25.5766 40.1737 25.6159 40.1614C25.6823 40.1417 25.7388 40.1245 25.7952 40.1049C25.8419 40.0902 25.8812 40.0779 25.9254 40.0656C26.0581 40.0214 26.1907 39.9772 26.3209 39.9305C26.3577 39.9182 26.3921 39.9059 26.4265 39.8937L26.4535 39.8838C26.5002 39.8666 26.5419 39.8519 26.5812 39.8372C26.6476 39.8126 26.704 39.7905 26.763 39.7684C26.8121 39.7487 26.8563 39.734 26.8981 39.7168C26.9791 39.6849 27.0528 39.6554 27.1265 39.6235L27.3476 39.5301C27.4163 39.5007 27.4851 39.4712 27.549 39.4417C27.5883 39.4245 27.6202 39.4098 27.6546 39.395L27.6865 39.3803C27.7406 39.3557 27.7946 39.3287 27.8486 39.3042C28.1827 39.1445 28.5118 38.975 28.8287 38.7933C28.8631 38.7736 28.895 38.754 28.9294 38.7368C29.0031 38.695 29.0767 38.6508 29.148 38.6091L29.5115 38.3855C29.6712 38.2824 29.8382 38.1743 30.0175 38.0515C30.0666 38.0171 30.1157 37.9827 30.1649 37.9483L30.1845 37.9336C30.2213 37.9066 30.2582 37.882 30.295 37.855L30.3049 37.8476C30.3319 37.828 30.3589 37.8083 30.3859 37.7887L30.3957 37.7813C30.4424 37.7494 30.4866 37.715 30.5308 37.6806C30.5824 37.6438 30.6315 37.6045 30.6782 37.5676C30.7126 37.5406 30.7396 37.5185 30.7691 37.4964L30.8035 37.4694C30.8526 37.4301 30.9042 37.3908 30.9533 37.349C31.0049 37.3073 31.0565 37.2655 31.1056 37.2262L31.1179 37.2164C31.2137 37.1378 31.307 37.0567 31.4028 36.9757C31.4323 36.9511 31.4593 36.9266 31.4888 36.8995L29.369 34.7774C27.0479 36.7571 24.1029 37.8403 21.0326 37.8403C13.9391 37.8403 8.16701 32.0682 8.16701 24.9746C8.16701 21.5163 9.52038 18.2716 11.9741 15.8375C13.1261 14.6953 14.5065 13.7694 15.9974 13.1332L13.7475 10.8833C12.3131 11.6275 11.0039 12.583 9.85197 13.7276C6.83083 16.7266 5.16797 20.718 5.16797 24.9722C5.16797 29.2091 6.81854 33.1906 9.81267 36.1872Z" fill="white"/>
<path d="M39.0192 21.0252C39.0192 15.4078 36.8332 10.1294 32.8615 6.15773C28.8898 2.18603 23.6089 0 17.9916 0C12.357 0 7.06388 2.19831 3.09218 6.19457C1.95741 7.3318 0.957731 8.59675 0.112793 9.95504L2.29637 12.1386C2.91042 11.0579 3.63501 10.041 4.46029 9.10519L4.43819 9.08308L5.20453 8.31429C8.61375 4.88296 13.1578 2.99167 17.994 2.99167C22.8107 2.99167 27.3399 4.86822 30.7467 8.27499C34.1535 11.6818 36.03 16.2086 36.03 21.0277C36.03 21.3838 36.0202 21.7473 35.9981 22.1035C35.9956 22.1501 35.9932 22.2017 35.9883 22.2533C35.9858 22.2902 35.9834 22.327 35.9809 22.3638V22.381C35.976 22.4547 35.9686 22.5309 35.9613 22.6045C35.9563 22.666 35.9514 22.7323 35.9441 22.7986C35.9342 22.8919 35.9244 22.9902 35.9146 23.0884C35.9072 23.1449 35.9023 23.2063 35.8925 23.2702C35.8827 23.3488 35.8728 23.4372 35.8605 23.5281C35.8532 23.5772 35.8458 23.6263 35.8384 23.673C35.8286 23.7565 35.8139 23.8449 35.7991 23.9358C35.7918 23.9825 35.7819 24.0365 35.7746 24.0881C35.7672 24.1323 35.7598 24.1765 35.75 24.2207C35.7402 24.2772 35.7279 24.3435 35.7156 24.4074C35.7058 24.4639 35.6935 24.5253 35.6788 24.5867C35.6665 24.6555 35.6518 24.7267 35.6346 24.8004C35.5314 25.2916 35.4037 25.7878 35.2588 26.2668C35.2391 26.3331 35.2195 26.4019 35.1949 26.4706C35.1777 26.5247 35.1605 26.5787 35.1433 26.6352C35.0402 26.952 34.9272 27.2689 34.8068 27.5759C34.7896 27.6177 34.7724 27.6619 34.7553 27.7061C34.7356 27.7552 34.716 27.8044 34.6963 27.8535C34.6717 27.9124 34.6447 27.9787 34.6177 28.0451C34.5981 28.0942 34.5735 28.1507 34.5489 28.2047L34.5391 28.2293C34.5047 28.303 34.4728 28.3791 34.4384 28.4528C34.4138 28.5093 34.3893 28.5633 34.3623 28.6174C33.9079 29.5998 33.3552 30.5479 32.724 31.4371L32.6233 31.5771C32.5496 31.6778 32.4783 31.7736 32.4071 31.8669C32.3727 31.9136 32.3359 31.9603 32.299 32.0069C32.2204 32.1101 32.1394 32.2108 32.0608 32.3091C32.0141 32.3655 31.9674 32.427 31.9183 32.4834C31.8766 32.535 31.8324 32.5891 31.7857 32.6431L31.7759 32.6529C31.7267 32.7094 31.6776 32.7684 31.626 32.8249C31.5695 32.8887 31.5131 32.955 31.4566 33.0189L33.5738 35.1386C37.0887 31.275 39.0192 26.279 39.0192 21.0252Z" fill="white"/>
<path d="M23.027 32.8692L25.2769 35.1191C26.7113 34.3748 28.0205 33.4194 29.1725 32.2748C32.1912 29.2757 33.8516 25.2819 33.8516 21.0278C33.8516 16.7932 32.201 12.8093 29.2069 9.81513C26.2103 6.81855 22.2288 5.16797 17.9918 5.16797C17.8591 5.16797 17.7265 5.17042 17.5939 5.17288C17.5276 5.17288 17.4637 5.17534 17.3974 5.17779H17.39C17.2918 5.18271 17.196 5.18762 17.0977 5.19253C17.0191 5.19744 16.943 5.20236 16.8644 5.20727C16.8251 5.20972 16.7907 5.21218 16.7588 5.21464L16.7047 5.21955C16.636 5.22446 16.5623 5.23183 16.491 5.2392C16.4272 5.24657 16.3682 5.25148 16.3068 5.25885C16.2626 5.26376 16.2233 5.26867 16.1865 5.27113L16.1251 5.2785C16.1177 5.2785 16.1103 5.28095 16.1054 5.28095C16.0538 5.28587 16.0022 5.29324 15.9507 5.3006C15.7542 5.32517 15.5626 5.35464 15.3735 5.38412C15.3194 5.39394 15.2678 5.40131 15.2163 5.41113L15.1991 5.41359C15.1573 5.42096 15.118 5.42833 15.0787 5.4357L15.0517 5.44061C15.0001 5.45043 14.9485 5.46026 14.8945 5.47008C14.7471 5.4971 14.6071 5.52658 14.4696 5.55851C14.3762 5.57816 14.2829 5.60272 14.1896 5.62482L14.1773 5.62728C14.1527 5.63219 14.1306 5.63711 14.106 5.64447C14.0373 5.66167 13.9759 5.67886 13.912 5.6936C13.858 5.70834 13.8088 5.72062 13.7573 5.73535C13.7131 5.74764 13.6738 5.75746 13.6345 5.76974C13.5976 5.77957 13.5681 5.78939 13.5411 5.79676L13.519 5.80413C13.4797 5.81395 13.4404 5.82623 13.4011 5.83852C13.3348 5.85817 13.2783 5.87536 13.2218 5.89501C13.1751 5.90975 13.1358 5.92203 13.0916 5.93431C12.959 5.97852 12.8264 6.02273 12.6962 6.0694C12.6593 6.08168 12.6274 6.09396 12.593 6.10624L12.5635 6.11607C12.5193 6.13326 12.48 6.14554 12.4407 6.16274C12.372 6.1873 12.313 6.2094 12.2541 6.23397C12.2049 6.25362 12.1632 6.27081 12.119 6.288C12.0379 6.31993 11.9642 6.34941 11.8905 6.38134L11.6695 6.47468C11.6007 6.50415 11.5344 6.53363 11.4681 6.5631C11.4312 6.58029 11.3968 6.59503 11.3625 6.60977L11.3305 6.62451C11.2765 6.64907 11.2225 6.67609 11.1684 6.70065C10.8344 6.8603 10.5052 7.02978 10.1884 7.21154C10.1515 7.23119 10.1221 7.24838 10.0877 7.26803C10.0189 7.30733 9.94768 7.34909 9.88136 7.38839L9.65293 7.52839C9.60626 7.55787 9.55714 7.5898 9.50801 7.61927C9.3459 7.72243 9.18134 7.83051 9.00449 7.95332C8.95782 7.98525 8.91361 8.01718 8.8694 8.04665L8.83992 8.0663C8.79817 8.09578 8.76133 8.1228 8.72448 8.14982L8.70974 8.15964C8.68518 8.17929 8.66062 8.19648 8.6336 8.21613L8.62378 8.2235C8.57711 8.25543 8.5329 8.28982 8.48869 8.32421C8.43711 8.36105 8.39044 8.40035 8.34131 8.43719C8.30693 8.46421 8.27745 8.48632 8.25043 8.50842L8.21605 8.53544C8.16692 8.57474 8.11534 8.61404 8.06622 8.6558C8.00972 8.70001 7.95569 8.74668 7.90165 8.79089C7.80586 8.86949 7.71252 8.94809 7.61673 9.0316C7.58725 9.05616 7.56024 9.08072 7.53076 9.10774L9.65293 11.2299C11.9741 9.2502 14.9191 8.16455 17.9893 8.16455C25.0829 8.16455 30.855 13.9367 30.855 21.0302C30.855 24.4886 29.5016 27.7332 27.0478 30.1673C25.8983 31.3046 24.5179 32.233 23.027 32.8692Z" fill="#1D2A38"/>
</g>
<g clip-path="url(#clip1_92568_59)">
<path d="M57.9199 30.2354L57.3062 32.0896H58.5467L57.9329 30.2354H57.9199Z" fill="white"/>
<path d="M58.8076 19.7498C58.5986 20.6835 58.2004 21.3951 57.6258 21.8848C57.0382 22.3549 56.3266 22.5965 55.4778 22.5965C54.7857 22.5965 54.1459 22.4202 53.5387 22.0741C52.9511 21.7281 52.5137 21.1927 52.2394 20.4811C51.9391 19.7694 51.802 18.9206 51.802 17.9674C51.802 17.2231 51.926 16.4919 52.1676 15.7998C52.4092 15.1012 52.827 14.5462 53.4016 14.1349C53.9892 13.7366 54.7335 13.5277 55.6019 13.5277C56.3657 13.5277 56.986 13.704 57.4887 14.0827C57.9915 14.4483 58.3701 15.0359 58.6313 15.852L58.6639 15.9369L60.4006 15.5386L60.368 15.4342C60.0415 14.3569 59.467 13.5081 58.6509 12.9009C57.8348 12.3133 56.8293 12.0195 55.6345 12.0195C54.5964 12.0195 53.6236 12.248 52.7356 12.7116C51.8738 13.1947 51.1817 13.8868 50.7117 14.7943C50.2416 15.6953 50 16.7661 50 17.9674C50 19.0773 50.2089 20.135 50.6268 21.0883C51.0446 22.0611 51.6649 22.825 52.481 23.3277C53.2775 23.85 54.3352 24.1112 55.6214 24.1112C56.8554 24.1112 57.9131 23.7651 58.7749 23.1057C59.6433 22.4463 60.2309 21.4604 60.5639 20.1938L60.5965 20.0893L58.8467 19.6584L58.8076 19.7498Z" fill="white"/>
<path d="M74.6924 12.7835C73.8044 12.2612 72.799 12 71.7086 12C70.0242 12 68.64 12.555 67.5823 13.6453C66.5246 14.7356 65.9893 16.283 65.9893 18.2025C65.9893 19.2276 66.2178 20.1939 66.6813 21.1144C67.1318 22.035 67.8108 22.7597 68.6922 23.3016C69.5737 23.837 70.5856 24.0982 71.689 24.0982C72.7271 24.0982 73.7 23.8566 74.5814 23.3669C75.4824 22.8968 76.1744 22.1721 76.6772 21.232C77.1603 20.3114 77.4084 19.2406 77.4084 18.0589C77.4084 16.8967 77.1668 15.8586 76.7163 14.938C76.2528 14.0305 75.5738 13.2993 74.6924 12.7835ZM74.503 21.4148C73.7718 22.1917 72.8186 22.5965 71.6956 22.5965C70.5856 22.5965 69.652 22.1982 68.9012 21.4344C68.1699 20.6509 67.7913 19.5801 67.7913 18.2286C67.7913 16.5442 68.1895 15.3167 68.9534 14.6051C69.7173 13.8934 70.6509 13.5278 71.7086 13.5278C72.4725 13.5278 73.145 13.7171 73.7522 14.0827C74.3398 14.4484 74.8099 14.9837 75.1233 15.6627C75.4367 16.3418 75.5934 17.1514 75.5934 18.0719C75.5934 19.5083 75.2277 20.6378 74.503 21.4148Z" fill="white"/>
<path d="M92.5689 12.5029L89.7745 20.4617C89.546 21.1015 89.3763 21.6043 89.2522 22.0025L88.7821 20.6184L85.9943 12.3984H85.8049V16.6488L88.3904 24.1049H89.9312L92.5689 16.6619V12.5029Z" fill="white"/>
<path d="M85.178 12.3984H83.4805V24.1049H85.178V12.3984Z" fill="white"/>
<path d="M94.8737 12.3984H93.1892V24.1049H94.8737V12.3984Z" fill="white"/>
<path d="M102.695 12.3984H100.946V24.1049H102.695V12.3984Z" fill="white"/>
<path d="M109.733 14.22C109.472 13.7369 109.159 13.3386 108.748 13.0774C108.349 12.7967 107.847 12.6074 107.272 12.5225C106.854 12.4376 106.247 12.3984 105.47 12.3984H103.322V13.9589H105.594C106.286 13.9589 106.756 13.9915 107.017 14.0633C107.396 14.1678 107.709 14.3767 107.938 14.7032C108.18 15.0296 108.284 15.4148 108.284 15.8849C108.284 16.5117 108.095 16.9948 107.696 17.3409C107.298 17.6869 106.606 17.8632 105.633 17.8632H103.329V19.4432H105.62C107.285 19.4432 108.48 19.0776 109.12 18.3855C109.779 17.6934 110.106 16.8447 110.106 15.8392C110.099 15.2451 109.975 14.7032 109.733 14.22Z" fill="white"/>
<path d="M120.741 12.3983L116.165 24.1047H118.019L118.541 22.7337H118.522L119.84 19.1819L120.121 18.4507L121.094 15.8652H121.114C121.322 15.2906 121.492 14.703 121.636 14.1285C121.812 14.6834 122.054 15.3625 122.347 16.1198L123.529 19.1688H120.532L119.997 20.6052H124.091L125.462 24.0917H127.453L122.563 12.3853H120.741V12.3983Z" fill="white"/>
<path d="M134.968 12.3984H133.336V24.1049H134.968V12.3984Z" fill="white"/>
<path d="M141.066 21.193L141.033 21.1407V24.1049H142.764V12.3984H141.066V21.193Z" fill="white"/>
<path d="M135.588 16.1458L140.407 23.2167V20.2199L135.588 13.1621V16.1458Z" fill="white"/>
<path d="M157.917 12.3984L155.612 15.8327C155.162 16.5117 154.764 17.1515 154.418 17.7065V17.6869L153.445 19.1624V24.1049H155.214V19.1624L159.98 12.3984H157.917Z" fill="white"/>
<path d="M154.052 17.0797L153.327 15.9176L150.983 12.3984H148.835L153.066 18.6075L154.052 17.0797Z" fill="white"/>
<path d="M50 29.9417H51.1622V33.611H51.8085V29.9417H52.9707V29.3672H50V29.9417Z" fill="white"/>
<path d="M57.6585 29.3672L56.1177 33.611H56.7967L57.1231 32.6643H58.7358L59.0622 33.611H59.7413L58.2004 29.3672H57.6585ZM57.3059 32.0898L57.9197 30.2355H57.9327L58.5465 32.0898H57.3059Z" fill="white"/>
<path d="M65.0361 31.8806H65.8979V32.1026C65.8914 32.3703 65.813 32.5858 65.6498 32.749C65.4866 32.9188 65.2777 33.0036 65.0296 33.0036C64.8794 33.0036 64.7488 32.971 64.6378 32.9057C64.5268 32.8535 64.4354 32.7816 64.3701 32.6902C64.2852 32.5988 64.233 32.4813 64.2069 32.3311C64.1743 32.181 64.1612 31.9002 64.1612 31.4824C64.1612 31.0645 64.1743 30.7838 64.2069 30.6271C64.233 30.4834 64.2918 30.3659 64.3701 30.2745C64.4354 30.1896 64.5268 30.1113 64.6378 30.0591C64.7488 30.0003 64.8794 29.9742 65.0296 29.9677C65.2319 29.9742 65.4082 30.0329 65.5519 30.1439C65.689 30.2615 65.7869 30.4116 65.8391 30.5814H66.5182C66.4529 30.2288 66.2896 29.9285 66.0285 29.6869C65.7673 29.4453 65.4343 29.3278 65.0296 29.3213C64.6966 29.3278 64.4158 29.4062 64.1938 29.5629C63.9653 29.713 63.8021 29.8893 63.6976 30.0852C63.6324 30.1896 63.5866 30.3202 63.554 30.49C63.5279 30.6597 63.5083 30.9862 63.5083 31.4824C63.5083 31.9655 63.5214 32.2985 63.554 32.4683C63.5671 32.5597 63.5866 32.638 63.6128 32.6968C63.6389 32.7555 63.665 32.8143 63.6976 32.8796C63.8021 33.0754 63.9653 33.2452 64.1938 33.3954C64.4158 33.5521 64.6966 33.6304 65.0296 33.6369C65.4605 33.6304 65.8196 33.4802 66.1068 33.1995C66.3876 32.9122 66.5377 32.5597 66.5443 32.1287V31.2669H65.0361V31.8806Z" fill="white"/>
<path d="M71.5129 29.3672H70.873V33.611H73.5826V33.0038H71.5129V29.3672Z" fill="white"/>
<path d="M78.4074 29.3672H77.7676V33.611H78.4074V29.3672Z" fill="white"/>
<path d="M85.4131 32.3836H85.4066L83.4805 29.3672H82.8799V33.611H83.5197V30.5946H83.5328L85.4523 33.611H86.0595V29.3672H85.4131V32.3836Z" fill="white"/>
<path d="M90.5317 33.611H93.2413V33.0038H91.1781V31.7568H92.9409V31.1888H91.1781V29.9744H93.2413V29.3672H90.5317V33.611Z" fill="white"/>
<path d="M103.805 31.8806H104.667V32.1026C104.66 32.3703 104.582 32.5858 104.419 32.749C104.256 32.9188 104.047 33.0036 103.799 33.0036C103.648 33.0036 103.518 32.971 103.407 32.9057C103.296 32.8535 103.204 32.7816 103.139 32.6902C103.054 32.5988 103.002 32.4813 102.976 32.3311C102.943 32.181 102.93 31.9002 102.93 31.4824C102.93 31.0645 102.943 30.7838 102.976 30.6271C103.002 30.4834 103.061 30.3659 103.139 30.2745C103.204 30.1896 103.296 30.1113 103.407 30.0591C103.518 30.0003 103.648 29.9742 103.799 29.9677C104.008 29.9742 104.177 30.0329 104.321 30.1439C104.458 30.2615 104.556 30.4116 104.608 30.5814H105.287C105.222 30.2288 105.059 29.9285 104.798 29.6869C104.543 29.4453 104.203 29.3278 103.799 29.3213C103.466 29.3278 103.185 29.4062 102.963 29.5629C102.734 29.713 102.571 29.8893 102.467 30.0852C102.401 30.1896 102.356 30.3202 102.323 30.49C102.297 30.6597 102.277 30.9862 102.277 31.4824C102.277 31.9655 102.29 32.2985 102.323 32.4683C102.336 32.5597 102.356 32.638 102.382 32.6968C102.408 32.7555 102.434 32.8143 102.467 32.8796C102.571 33.0754 102.734 33.2452 102.963 33.3954C103.185 33.5521 103.466 33.6304 103.799 33.6369C104.23 33.6304 104.589 33.4802 104.876 33.1995C105.157 32.9122 105.307 32.5597 105.313 32.1287V31.2669H103.805V31.8806Z" fill="white"/>
<path d="M112.339 30.092C112.241 29.8961 112.077 29.7199 111.855 29.5697C111.627 29.413 111.346 29.3347 111.013 29.3281C110.68 29.3347 110.399 29.413 110.177 29.5697C109.949 29.7199 109.786 29.8961 109.681 30.092C109.616 30.1965 109.57 30.3271 109.538 30.4968C109.512 30.6666 109.492 30.993 109.492 31.4892C109.492 31.9724 109.505 32.3053 109.538 32.4751C109.551 32.5665 109.57 32.6448 109.596 32.7036C109.623 32.7624 109.649 32.8211 109.681 32.8864C109.786 33.0823 109.949 33.252 110.177 33.4022C110.399 33.5589 110.68 33.6372 111.013 33.6438C111.353 33.6372 111.633 33.5524 111.855 33.4022C112.077 33.252 112.241 33.0823 112.339 32.8864C112.41 32.7819 112.463 32.6448 112.489 32.4751C112.515 32.3053 112.528 31.9789 112.528 31.4892C112.528 30.9995 112.515 30.6666 112.489 30.4968C112.463 30.3336 112.41 30.1965 112.339 30.092ZM111.836 32.338C111.803 32.4881 111.744 32.6057 111.666 32.6971C111.601 32.7819 111.516 32.8538 111.411 32.9125C111.3 32.9778 111.163 33.0105 111.013 33.0105C110.863 33.0105 110.732 32.9778 110.621 32.9125C110.51 32.8603 110.419 32.7885 110.354 32.6971C110.269 32.6057 110.217 32.4881 110.191 32.338C110.158 32.1878 110.145 31.9071 110.145 31.4892C110.145 31.0714 110.158 30.7906 110.191 30.6339C110.217 30.4903 110.275 30.3728 110.354 30.2814C110.419 30.1965 110.51 30.1181 110.621 30.0659C110.732 30.0071 110.863 29.981 111.013 29.9745C111.163 29.981 111.3 30.0071 111.411 30.0659C111.516 30.1247 111.601 30.1965 111.666 30.2814C111.751 30.3728 111.81 30.4903 111.836 30.6339C111.862 30.7841 111.882 31.0714 111.882 31.4892C111.882 31.9071 111.868 32.1878 111.836 32.338Z" fill="white"/>
<path d="M116.85 33.611H119.56V33.0038H117.496V31.7568H119.259V31.1888H117.496V29.9744H119.56V29.3672H116.85V33.611Z" fill="white"/>
<path d="M125.325 31.1887C125.122 31.1626 124.965 31.143 124.848 31.1234C124.639 31.0842 124.489 31.0124 124.391 30.9145C124.293 30.8165 124.247 30.7056 124.247 30.5815C124.254 30.3791 124.319 30.2224 124.463 30.1245C124.593 30.0265 124.763 29.9743 124.959 29.9743C125.344 29.9808 125.69 30.0918 126.01 30.3008L126.369 29.7719C125.977 29.4912 125.52 29.341 124.992 29.3345C124.554 29.341 124.215 29.452 123.973 29.6805C123.725 29.909 123.601 30.2094 123.601 30.575C123.601 30.8818 123.699 31.143 123.895 31.3585C124.084 31.5674 124.365 31.7045 124.73 31.7632C124.933 31.7894 125.122 31.8155 125.292 31.8416C125.664 31.9069 125.847 32.0962 125.847 32.4096C125.84 32.7948 125.56 32.9907 125.011 32.9972C124.548 32.9907 124.143 32.8536 123.803 32.5728L123.379 33.056C123.829 33.4412 124.371 33.6371 124.998 33.6371C125.971 33.624 126.467 33.2127 126.487 32.4031C126.487 32.1028 126.395 31.8416 126.206 31.6131C126.017 31.3911 125.723 31.2475 125.325 31.1887Z" fill="white"/>
<path d="M138.069 31.1888H136.391V29.3672H135.745V33.611H136.391V31.7568H138.069V33.611H138.716V29.3672H138.069V31.1888Z" fill="white"/>
<path d="M143.188 33.611H145.898V33.0038H143.828V31.7568H145.591V31.1888H143.828V29.9744H145.898V29.3672H143.188V33.611Z" fill="white"/>
<path d="M153.02 30.5486C153.007 30.1569 152.87 29.8566 152.596 29.6411C152.374 29.4518 152.087 29.3604 151.734 29.3604H150.076V33.6042H150.722V31.7891H151.545L152.42 33.6042H153.184L152.198 31.7238C152.74 31.5214 153.014 31.1297 153.02 30.5486ZM150.722 31.2276V29.9414H151.728C151.93 29.9414 152.093 29.9871 152.198 30.072C152.335 30.1699 152.407 30.3332 152.413 30.5552C152.413 30.738 152.355 30.8947 152.237 31.0187C152.119 31.1558 151.937 31.2276 151.695 31.2276H150.722Z" fill="white"/>
<path d="M157.291 33.611H160V33.0038H157.93V31.7568H159.693V31.1888H157.93V29.9744H160V29.3672H157.291V33.611Z" fill="white"/>
</g>
<defs>
<clipPath id="clip0_92568_59">
<rect width="39.0194" height="46" fill="white"/>
</clipPath>
<clipPath id="clip1_92568_59">
<rect width="110" height="21.6435" fill="white" transform="translate(50 12)"/>
</clipPath>
</defs>
</svg>
